<svg xmlns="http://www.w3.org/2000/svg" xmlns:xlink="http://www.w3.org/1999/xlink" width="50" zoomAndPan="magnify" viewBox="0 0 37.5 30.000001" height="40" preserveAspectRatio="xMidYMid meet" version="1.0"><defs><g/><clipPath id="69d68fe44f"><path d="M 0.363281 0 L 36.652344 0 L 36.652344 29.03125 L 0.363281 29.03125 Z M 0.363281 0 " clip-rule="nonzero"/></clipPath></defs><g clip-path="url(#69d68fe44f)"><path stroke-linecap="butt" transform="matrix(0.148703, 0, 0, 0.148703, -16.040323, 9.831982)" fill="none" stroke-linejoin="miter" d="M 141.544693 50.436397 C 141.544693 60.891374 143.35724 79.647287 152.314895 85.42642 C 154.127442 86.71359 156.045063 87.238966 157.857609 87.238966 C 177.585467 87.238966 197.313325 23.668505 202.120513 7.670815 L 205.955755 -5.332234 C 206.270981 -6.409254 205.955755 -5.673728 206.270981 -6.094029 L 204.35336 10.744263 C 201.595137 35.620802 195.737198 84.3494 186.332973 105.705922 C 184.940727 108.674295 180.369958 117.21165 180.369958 119.759722 C 180.369958 120.836743 181.000409 121.283312 181.735935 121.283312 C 182.392655 121.283312 183.023106 120.941818 183.469675 120.521517 L 187.935369 113.139988 C 199.36229 93.20198 204.484703 56.740906 207.79457 32.941386 C 209.160547 22.801635 210.132492 11.295907 211.314588 1.2875 C 212.12892 -5.332234 215.018486 -31.259526 213.757585 -36.828508 C 212.99579 -37.117465 212.365339 -37.327615 211.813695 -37.327615 C 209.685923 -37.327615 209.370698 -34.989693 208.713978 -32.336546 C 203.171264 -9.403896 197.4184 13.843979 188.670895 35.830953 C 183.3646 49.385646 175.983071 68.036484 165.659438 78.701611 C 162.769872 81.591177 160.326875 82.747004 158.172835 82.747004 C 150.607424 82.747004 147.849202 66.880657 147.849202 58.238227 C 147.849202 27.398673 154.757892 0.63078 165.107794 -28.081002 C 165.974664 -30.103699 168.969305 -37.22254 168.969305 -39.061355 C 168.969305 -39.061355 168.969305 -38.824936 168.522736 -39.37658 L 167.445716 -40.217181 C 164.030774 -39.481655 163.321517 -36.066713 161.167476 -31.995052 C 150.397274 -10.559723 141.544693 27.713898 141.544693 50.436397 Z M 270.498161 49.490721 L 270.261742 48.965345 C 268.685615 44.026814 269.526216 40.112765 264.193653 26.873297 C 258.861089 13.449947 250.008509 3.178852 238.502781 -5.437309 L 226.025108 -14.526309 C 224.501518 -15.603329 222.715241 -16.417662 222.163596 -18.256477 C 223.897336 -20.804549 231.883047 -23.142471 235.613214 -24.324566 C 240.735627 -25.821887 245.621622 -27.214133 250.875379 -28.580109 C 256.943468 -29.972355 277.538196 -34.884618 283.842704 -34.884618 C 277.433121 -7.354931 275.095199 11.400982 271.680257 38.379025 Z M 218.538504 -19.018271 C 218.538504 -16.312587 220.035824 -14.94661 221.63822 -13.764514 L 231.331402 -6.855824 C 236.874116 -2.679087 245.122515 2.968702 249.588208 8.616491 C 256.418092 17.258921 260.988861 24.64045 264.298728 36.461404 C 266.63665 44.893684 268.685615 56.845981 268.685615 66.013787 L 266.8468 96.301697 C 267.608595 96.748266 267.818745 97.378717 268.685615 97.378717 C 271.023537 97.378717 270.918462 92.676605 271.128612 90.548833 L 274.64863 55.874036 C 275.095199 52.669244 275.174005 50.121172 275.594306 47.021455 C 277.222971 35.620802 278.273722 24.955675 280.191343 13.108453 L 285.970476 -19.412303 C 286.285702 -21.461269 288.728699 -34.569393 289.148999 -35.515069 C 293.089317 -35.515069 295.558583 -35.961638 299.28875 -35.961638 C 307.30073 -35.961638 323.587377 -33.623716 332.019657 -31.574751 C 334.278773 -30.9443 335.749825 -30.524 336.72177 -30.524 C 337.58864 -30.524 337.903865 -30.9443 337.903865 -32.336546 C 337.903865 -36.828508 305.672065 -39.901956 301.416522 -40.322257 C 300.786071 -40.322257 300.234427 -40.322257 299.498901 -40.322257 C 297.029635 -40.322257 294.166337 -40.217181 291.93349 -40.217181 C 291.276771 -40.217181 290.751395 -40.217181 290.199751 -40.217181 C 287.231378 -40.427332 289.595569 -41.294202 286.706002 -41.294202 C 284.893456 -41.294202 286.390777 -39.901956 283.08091 -39.586731 C 265.796049 -37.747916 248.511188 -33.833867 232.093197 -28.159809 L 224.212561 -24.876211 C 222.478822 -23.79919 218.538504 -21.461269 218.538504 -19.018271 Z M 218.538504 -19.018271 " stroke="#fafaf8" stroke-width="5.33325" stroke-opacity="1" stroke-miterlimit="4"/></g><g fill="#cdbab1" fill-opacity="1"><g transform="translate(4.689819, 16.523622)"><g><path d="M 0.316406 0.808594 C 0.316406 2.363281 0.585938 5.15625 1.917969 6.011719 C 2.1875 6.203125 2.472656 6.28125 2.742188 6.28125 C 5.679688 6.28125 8.613281 -3.171875 9.324219 -5.550781 L 9.898438 -7.484375 C 9.945312 -7.644531 9.898438 -7.535156 9.945312 -7.597656 L 9.660156 -5.089844 C 9.246094 -1.394531 8.375 5.851562 6.980469 9.023438 C 6.773438 9.46875 6.089844 10.738281 6.089844 11.117188 C 6.089844 11.277344 6.1875 11.339844 6.296875 11.339844 C 6.390625 11.339844 6.488281 11.292969 6.550781 11.230469 L 7.214844 10.136719 C 8.914062 7.167969 9.675781 1.746094 10.167969 -1.792969 C 10.371094 -3.300781 10.515625 -5.011719 10.691406 -6.503906 C 10.816406 -7.484375 11.246094 -11.339844 11.054688 -12.164062 C 10.945312 -12.210938 10.847656 -12.246094 10.769531 -12.246094 C 10.453125 -12.246094 10.40625 -11.894531 10.308594 -11.5 C 9.484375 -8.089844 8.628906 -4.632812 7.328125 -1.363281 C 6.535156 0.648438 5.441406 3.425781 3.902344 5.011719 C 3.472656 5.441406 3.109375 5.613281 2.792969 5.613281 C 1.664062 5.613281 1.253906 3.25 1.253906 1.964844 C 1.253906 -2.617188 2.285156 -6.597656 3.824219 -10.863281 C 3.949219 -11.164062 4.394531 -12.230469 4.394531 -12.5 C 4.394531 -12.5 4.394531 -12.464844 4.328125 -12.546875 L 4.171875 -12.671875 C 3.664062 -12.5625 3.554688 -12.054688 3.234375 -11.453125 C 1.632812 -8.261719 0.316406 -2.570312 0.316406 0.808594 Z M 0.316406 0.808594 "/></g></g></g><g fill="#cdbab1" fill-opacity="1"><g transform="translate(15.823626, 16.523622)"><g><path d="M 8.359375 0.667969 L 8.328125 0.585938 C 8.089844 -0.144531 8.214844 -0.730469 7.421875 -2.695312 C 6.628906 -4.695312 5.3125 -6.21875 3.601562 -7.503906 L 1.746094 -8.851562 C 1.523438 -9.007812 1.253906 -9.136719 1.171875 -9.40625 C 1.425781 -9.785156 2.617188 -10.136719 3.171875 -10.308594 C 3.933594 -10.53125 4.664062 -10.738281 5.441406 -10.945312 C 6.34375 -11.148438 9.40625 -11.878906 10.339844 -11.878906 C 9.390625 -7.789062 9.039062 -4.996094 8.53125 -0.984375 Z M 0.632812 -9.515625 C 0.632812 -9.121094 0.855469 -8.914062 1.09375 -8.738281 L 2.539062 -7.707031 C 3.363281 -7.089844 4.582031 -6.25 5.25 -5.410156 C 6.265625 -4.125 6.945312 -3.03125 7.4375 -1.269531 C 7.789062 -0.015625 8.089844 1.761719 8.089844 3.125 L 7.820312 7.628906 C 7.929688 7.691406 7.960938 7.789062 8.089844 7.789062 C 8.4375 7.789062 8.421875 7.089844 8.453125 6.773438 L 8.976562 1.617188 C 9.039062 1.140625 9.054688 0.761719 9.121094 0.300781 C 9.359375 -1.394531 9.515625 -2.980469 9.800781 -4.742188 L 10.660156 -9.578125 C 10.707031 -9.882812 11.070312 -11.832031 11.132812 -11.976562 C 11.722656 -11.976562 12.085938 -12.039062 12.640625 -12.039062 C 13.832031 -12.039062 16.257812 -11.6875 17.511719 -11.386719 C 17.84375 -11.292969 18.066406 -11.230469 18.207031 -11.230469 C 18.335938 -11.230469 18.382812 -11.292969 18.382812 -11.5 C 18.382812 -12.164062 13.59375 -12.625 12.957031 -12.6875 C 12.863281 -12.6875 12.785156 -12.6875 12.671875 -12.6875 C 12.308594 -12.6875 11.878906 -12.671875 11.546875 -12.671875 C 11.453125 -12.671875 11.371094 -12.671875 11.292969 -12.671875 C 10.847656 -12.703125 11.199219 -12.832031 10.769531 -12.832031 C 10.5 -12.832031 10.722656 -12.625 10.230469 -12.578125 C 7.660156 -12.308594 5.089844 -11.722656 2.648438 -10.878906 L 1.476562 -10.390625 C 1.222656 -10.230469 0.632812 -9.882812 0.632812 -9.515625 Z M 0.632812 -9.515625 "/></g></g></g></svg>