<svg xmlns="http://www.w3.org/2000/svg" xmlns:xlink="http://www.w3.org/1999/xlink" width="50" zoomAndPan="magnify" viewBox="0 0 37.5 37.499999" height="50" preserveAspectRatio="xMidYMid meet" version="1.0"><defs><clipPath id="b9ce1bfc44"><path d="M 20 24 L 37 24 L 37 35.875 L 20 35.875 Z M 20 24 " clip-rule="nonzero"/></clipPath><clipPath id="a43ea94092"><path d="M 1 1.085938 L 30 1.085938 L 30 30 L 1 30 Z M 1 1.085938 " clip-rule="nonzero"/></clipPath><clipPath id="8676b86950"><path d="M 20 31 L 24 31 L 24 35.875 L 20 35.875 Z M 20 31 " clip-rule="nonzero"/></clipPath></defs><g clip-path="url(#b9ce1bfc44)"><path fill="#000000" d="M 34.953125 24.210938 C 34.898438 24.214844 24.925781 24.632812 23.3125 24.707031 C 22.203125 24.75 20.964844 24.578125 20.746094 25.253906 C 20.621094 25.640625 20.929688 25.972656 21.207031 26.261719 C 22.949219 28.109375 23.585938 28.792969 23.738281 28.898438 C 23.734375 29.050781 23.722656 33.625 23.730469 33.679688 C 23.757812 33.960938 24.035156 34.113281 24.273438 34.019531 L 27.082031 32.9375 C 28.164062 34.359375 28.4375 34.664062 28.683594 34.972656 C 28.980469 35.34375 29.351562 35.804688 29.875 35.804688 C 29.929688 35.785156 30.332031 35.851562 30.792969 35.257812 C 30.863281 35.167969 36.464844 25.914062 36.464844 25.90625 C 36.835938 24.929688 36.265625 24.144531 34.953125 24.210938 Z M 21.664062 25.566406 C 22.207031 25.492188 22.777344 25.539062 23.34375 25.515625 C 24.597656 25.460938 34.144531 25.054688 34.207031 25.054688 C 31.695312 25.917969 24.4375 28.078125 24.167969 28.207031 C 24.117188 28.164062 21.773438 25.6875 21.664062 25.566406 Z M 25.101562 32.832031 C 25.425781 32.277344 25.695312 31.800781 25.945312 31.382812 C 26.398438 32 26.074219 31.566406 26.578125 32.261719 Z M 35.707031 25.625 C 35.683594 25.679688 30.195312 34.707031 30.152344 34.761719 C 30.019531 34.933594 29.90625 35.015625 29.875 34.992188 C 29.726562 34.992188 29.429688 34.605469 29.234375 34.363281 C 27.648438 32.425781 26.5 30.769531 26.433594 30.652344 C 28.171875 29.945312 34.070312 26.488281 35.746094 25.425781 C 35.742188 25.492188 35.730469 25.558594 35.707031 25.621094 C 35.683594 25.675781 35.683594 25.679688 35.707031 25.625 Z M 35.707031 25.625 " fill-opacity="1" fill-rule="nonzero"/></g><g clip-path="url(#a43ea94092)"><path fill="#000000" d="M 6.390625 27.429688 C 10.757812 30.25 16.328125 30.734375 20.925781 28.523438 C 21.128906 28.425781 21.214844 28.183594 21.117188 27.980469 C 21.019531 27.78125 20.777344 27.695312 20.574219 27.792969 C 16.285156 29.855469 11.019531 29.453125 6.832031 26.75 C 2.917969 24.226562 1.074219 19.121094 2.339844 14.332031 C 3.230469 10.960938 6.09375 8.203125 9.261719 7.589844 C 9.015625 12.808594 8.808594 18.164062 8.710938 19.023438 C 8.636719 19.703125 8.546875 20.46875 8.921875 21.164062 C 9.492188 22.21875 10.328125 22.257812 11.140625 22.292969 C 11.199219 22.296875 22.050781 22.988281 22.828125 23.097656 C 24.457031 23.320312 25.761719 23.472656 26.257812 21.9375 C 27.128906 21.90625 28.1875 21.851562 28.726562 21.179688 C 28.726562 21.175781 28.726562 21.175781 28.726562 21.175781 C 29.484375 20.195312 28.949219 18.460938 28.859375 17.539062 C 27.628906 4.636719 27.710938 5.785156 27.664062 4.898438 C 27.609375 3.832031 27.539062 2.507812 26.59375 1.777344 C 25.695312 1.070312 18.671875 1.828125 17.1875 2 C 14.414062 1.871094 10.992188 1.816406 10.375 2.257812 C 9.398438 2.949219 9.414062 4.898438 9.339844 6.015625 C 9.332031 6.152344 9.316406 6.417969 9.300781 6.761719 C 5.765625 7.359375 2.539062 10.398438 1.554688 14.125 C 0.199219 19.246094 2.1875 24.71875 6.390625 27.429688 Z M 10.171875 5.671875 C 10.210938 4.847656 10.289062 3.3125 10.839844 2.921875 C 11.835938 2.371094 25.15625 3.078125 26.171875 3.851562 C 26.738281 4.457031 26.621094 5.527344 26.519531 6.46875 C 26.421875 7.390625 26.53125 6.167969 25.664062 19.167969 C 25.605469 20.039062 25.820312 21.824219 25.082031 22.285156 C 24.511719 22.613281 22.921875 22.25 22.144531 22.203125 C 22.089844 22.199219 11.40625 21.496094 11.175781 21.484375 C 10.351562 21.445312 9.972656 21.402344 9.636719 20.78125 C 9.382812 20.308594 9.449219 19.726562 9.519531 19.117188 C 9.617188 18.214844 9.855469 12.101562 10.171875 5.671875 Z M 10.171875 5.671875 " fill-opacity="1" fill-rule="nonzero"/></g><path fill="#000000" d="M 11.164062 34.5625 C 14.914062 34.355469 18.636719 33.296875 21.933594 31.503906 C 22.128906 31.394531 22.203125 31.148438 22.09375 30.953125 C 21.988281 30.757812 21.742188 30.683594 21.546875 30.792969 C 18.355469 32.527344 14.75 33.554688 11.121094 33.753906 C 10.898438 33.765625 10.726562 33.957031 10.738281 34.179688 C 10.75 34.410156 10.953125 34.578125 11.164062 34.5625 Z M 11.164062 34.5625 " fill-opacity="1" fill-rule="nonzero"/><g clip-path="url(#8676b86950)"><path fill="#000000" d="M 21.375 34.988281 L 23.011719 32.609375 C 23.140625 32.425781 23.09375 32.175781 22.910156 32.046875 C 22.722656 31.921875 22.472656 31.964844 22.34375 32.152344 L 20.707031 34.53125 C 20.582031 34.714844 20.628906 34.964844 20.8125 35.09375 C 21 35.222656 21.25 35.171875 21.375 34.988281 Z M 21.375 34.988281 " fill-opacity="1" fill-rule="nonzero"/></g><path fill="#000000" d="M 19.753906 6.195312 C 19.777344 5.476562 19.34375 4.828125 18.679688 4.589844 C 17.296875 4.09375 15.925781 5.464844 16.710938 6.964844 C 17.386719 8.261719 19.695312 7.875 19.753906 6.195312 Z M 19.753906 6.195312 " fill-opacity="1" fill-rule="nonzero"/><path fill="#000000" d="M 14.234375 12.558594 C 18.53125 12.816406 16.878906 12.71875 21.175781 12.976562 C 22.027344 13.015625 22.535156 12.128906 22.15625 11.425781 C 20.84375 8.980469 16.5625 8.363281 14.222656 10.117188 C 13.679688 10.527344 13.433594 10.9375 13.390625 10.992188 C 12.980469 11.660156 13.464844 12.511719 14.234375 12.558594 Z M 14.082031 11.417969 C 15.503906 9.28125 20.183594 9.464844 21.441406 11.808594 C 21.53125 11.972656 21.414062 12.179688 21.222656 12.164062 L 14.28125 11.75 C 14.128906 11.742188 14 11.585938 14.082031 11.417969 Z M 14.082031 11.417969 " fill-opacity="1" fill-rule="nonzero"/><path fill="#000000" d="M 12.09375 16.308594 L 22.9375 16.96875 C 23.15625 16.984375 23.351562 16.816406 23.367188 16.589844 C 23.378906 16.367188 23.210938 16.171875 22.988281 16.160156 L 12.140625 15.5 C 11.921875 15.488281 11.726562 15.65625 11.710938 15.878906 C 11.699219 16.101562 11.867188 16.292969 12.09375 16.308594 Z M 12.09375 16.308594 " fill-opacity="1" fill-rule="nonzero"/><path fill="#000000" d="M 21.0625 18.566406 L 14.414062 18.1875 C 14.1875 18.167969 14 18.347656 13.988281 18.570312 C 13.972656 18.792969 14.144531 18.984375 14.367188 18.996094 L 21.015625 19.375 C 21.230469 19.390625 21.429688 19.226562 21.445312 18.996094 C 21.457031 18.769531 21.285156 18.578125 21.0625 18.566406 Z M 21.0625 18.566406 " fill-opacity="1" fill-rule="nonzero"/></svg>