<svg xmlns="http://www.w3.org/2000/svg" xmlns:xlink="http://www.w3.org/1999/xlink" width="50" zoomAndPan="magnify" viewBox="0 0 37.5 30.000001" height="40" preserveAspectRatio="xMidYMid meet" version="1.0"><defs><g/></defs><path stroke-linecap="butt" transform="matrix(0.0855665, 0, 0, 0.0855665, 0.362903, 11.820787)" fill="none" stroke-linejoin="miter" d="M 141.524491 50.439514 C 141.524491 60.893738 143.350556 79.65656 152.343928 85.408666 C 154.124342 86.732563 156.041711 87.234731 157.867776 87.234731 C 177.589282 87.234731 197.310788 23.687656 202.10421 7.663932 L 205.984599 -5.346783 C 206.258508 -6.396771 205.984599 -5.666345 206.258508 -6.077209 L 204.34114 10.768244 C 201.602042 35.648384 195.712981 84.358678 186.308744 105.677991 C 184.939195 108.645347 180.374032 117.227855 180.374032 119.738694 C 180.374032 120.834334 181.013155 121.29085 181.743581 121.29085 C 182.382704 121.29085 183.021827 120.925637 183.478343 120.514772 L 187.952203 113.164859 C 199.365112 93.215095 204.478095 56.739439 207.765012 32.954938 C 209.180213 22.820275 210.138897 11.316063 211.280188 1.272704 C 212.147569 -5.346783 215.023622 -31.276911 213.745376 -36.800759 C 213.01495 -37.120321 212.375827 -37.348579 211.828008 -37.348579 C 209.682381 -37.348579 209.362819 -34.974694 208.723697 -32.326899 C 203.199849 -9.409779 197.402091 13.872555 188.682629 35.830991 C 183.341388 49.389526 175.991475 68.061045 165.674206 78.697875 C 162.752501 81.573928 160.332964 82.760871 158.187338 82.760871 C 150.609166 82.760871 147.824417 66.874102 147.824417 58.245943 C 147.824417 27.385438 154.763465 0.633581 165.126386 -28.081297 C 165.948115 -30.089969 168.961123 -37.211624 168.961123 -39.037689 C 168.961123 -39.037689 168.961123 -38.809431 168.504607 -39.357251 L 167.454619 -40.224632 C 164.030747 -39.494206 163.300321 -36.070333 161.154694 -32.007338 C 150.380908 -10.55107 141.524491 27.705 141.524491 50.439514 Z M 270.490358 49.480829 L 270.262099 48.978661 C 268.664292 44.048285 269.531673 40.122244 264.190432 26.88327 C 258.849191 13.46169 249.992774 3.190072 238.488562 -5.438087 L 226.025666 -14.522762 C 224.519162 -15.572749 222.738748 -16.44013 222.190929 -18.266196 C 223.880039 -20.822687 231.869075 -23.150921 235.612509 -24.337863 C 240.725492 -25.844367 245.610217 -27.213916 250.860155 -28.583465 C 256.931822 -29.953014 277.520709 -34.883391 283.820635 -34.883391 C 277.429406 -7.355455 275.101173 11.407366 271.6773 38.387482 Z M 218.538798 -18.996622 C 218.538798 -16.303175 220.045302 -14.933626 221.643109 -13.792336 L 231.321255 -6.853287 C 236.890755 -2.698988 245.108049 2.961814 249.581909 8.622617 C 256.429654 17.250776 260.994818 24.64634 264.281735 36.470114 C 266.65562 44.915666 268.664292 56.830743 268.664292 66.006721 L 266.838227 96.319406 C 267.614305 96.730271 267.796911 97.369394 268.664292 97.369394 C 271.038177 97.369394 270.901222 92.667275 271.129481 90.521649 L 274.644656 55.872058 C 275.101173 52.676444 275.192476 50.119952 275.603341 47.015641 C 277.201148 35.648384 278.296787 24.965902 280.168504 13.096477 L 285.966262 -19.407487 C 286.285823 -21.46181 288.70536 -34.563829 289.161876 -35.522513 C 293.087917 -35.522513 295.553105 -35.97903 299.296539 -35.97903 C 307.285575 -35.97903 323.583208 -33.605145 332.028761 -31.596473 C 334.265691 -30.911698 335.772195 -30.500834 336.730879 -30.500834 C 337.59826 -30.500834 337.87217 -30.911698 337.87217 -32.326899 C 337.87217 -36.800759 305.687768 -39.90507 301.396514 -40.315935 C 300.803043 -40.315935 300.255223 -40.315935 299.524797 -40.315935 C 297.013957 -40.315935 294.183556 -40.224632 291.946626 -40.224632 C 291.261851 -40.224632 290.759683 -40.224632 290.211864 -40.224632 C 287.244507 -40.45289 289.572741 -41.274619 286.696688 -41.274619 C 284.916274 -41.274619 286.377126 -39.90507 283.090209 -39.585509 C 265.788239 -37.759444 248.531922 -33.833403 232.097333 -28.1726 L 224.199601 -24.885683 C 222.464838 -23.790043 218.538798 -21.46181 218.538798 -18.996622 Z M 218.538798 -18.996622 " stroke="#fafaf8" stroke-width="5.33325" stroke-opacity="1" stroke-miterlimit="4"/><g fill="#cdbab1" fill-opacity="1"><g transform="translate(12.291406, 15.671279)"><g><path d="M 0.183594 0.464844 C 0.183594 1.359375 0.335938 2.964844 1.105469 3.457031 C 1.257812 3.570312 1.421875 3.613281 1.578125 3.613281 C 3.265625 3.613281 4.957031 -1.824219 5.367188 -3.195312 L 5.695312 -4.308594 C 5.722656 -4.398438 5.695312 -4.335938 5.722656 -4.371094 L 5.558594 -2.929688 C 5.320312 -0.804688 4.820312 3.367188 4.015625 5.191406 C 3.898438 5.449219 3.503906 6.179688 3.503906 6.398438 C 3.503906 6.488281 3.558594 6.527344 3.625 6.527344 C 3.679688 6.527344 3.734375 6.5 3.769531 6.460938 L 4.152344 5.832031 C 5.128906 4.125 5.566406 1.003906 5.851562 -1.03125 C 5.96875 -1.898438 6.050781 -2.882812 6.152344 -3.742188 C 6.222656 -4.308594 6.472656 -6.527344 6.359375 -7 C 6.296875 -7.027344 6.242188 -7.046875 6.195312 -7.046875 C 6.015625 -7.046875 5.988281 -6.84375 5.933594 -6.617188 C 5.457031 -4.65625 4.964844 -2.664062 4.214844 -0.785156 C 3.761719 0.375 3.128906 1.972656 2.246094 2.882812 C 2 3.128906 1.789062 3.230469 1.605469 3.230469 C 0.957031 3.230469 0.722656 1.871094 0.722656 1.132812 C 0.722656 -1.507812 1.3125 -3.796875 2.199219 -6.25 C 2.273438 -6.425781 2.527344 -7.035156 2.527344 -7.191406 C 2.527344 -7.191406 2.527344 -7.171875 2.492188 -7.21875 L 2.398438 -7.292969 C 2.109375 -7.226562 2.042969 -6.9375 1.863281 -6.589844 C 0.941406 -4.753906 0.183594 -1.476562 0.183594 0.464844 Z M 0.183594 0.464844 "/></g></g></g><g fill="#cdbab1" fill-opacity="1"><g transform="translate(18.698002, 15.671279)"><g><path d="M 4.808594 0.382812 L 4.792969 0.335938 C 4.65625 -0.0820312 4.726562 -0.417969 4.269531 -1.550781 C 3.816406 -2.703125 3.058594 -3.578125 2.070312 -4.316406 L 1.003906 -5.09375 C 0.875 -5.183594 0.722656 -5.257812 0.675781 -5.410156 C 0.820312 -5.632812 1.507812 -5.832031 1.824219 -5.933594 C 2.261719 -6.058594 2.683594 -6.179688 3.128906 -6.296875 C 3.652344 -6.414062 5.410156 -6.835938 5.949219 -6.835938 C 5.402344 -4.480469 5.203125 -2.875 4.910156 -0.566406 Z M 0.363281 -5.476562 C 0.363281 -5.246094 0.492188 -5.128906 0.628906 -5.027344 L 1.460938 -4.433594 C 1.933594 -4.078125 2.636719 -3.597656 3.019531 -3.113281 C 3.605469 -2.371094 3.996094 -1.742188 4.28125 -0.730469 C 4.480469 -0.0078125 4.65625 1.011719 4.65625 1.796875 L 4.5 4.390625 C 4.5625 4.425781 4.582031 4.480469 4.65625 4.480469 C 4.855469 4.480469 4.847656 4.078125 4.863281 3.898438 L 5.164062 0.929688 C 5.203125 0.65625 5.210938 0.4375 5.246094 0.171875 C 5.382812 -0.804688 5.476562 -1.714844 5.640625 -2.730469 L 6.132812 -5.511719 C 6.160156 -5.6875 6.371094 -6.808594 6.40625 -6.890625 C 6.746094 -6.890625 6.953125 -6.925781 7.273438 -6.925781 C 7.957031 -6.925781 9.355469 -6.726562 10.074219 -6.554688 C 10.265625 -6.5 10.394531 -6.460938 10.476562 -6.460938 C 10.550781 -6.460938 10.578125 -6.5 10.578125 -6.617188 C 10.578125 -7 7.820312 -7.265625 7.457031 -7.300781 C 7.402344 -7.300781 7.355469 -7.300781 7.292969 -7.300781 C 7.082031 -7.300781 6.835938 -7.292969 6.644531 -7.292969 C 6.589844 -7.292969 6.542969 -7.292969 6.5 -7.292969 C 6.242188 -7.308594 6.441406 -7.382812 6.195312 -7.382812 C 6.042969 -7.382812 6.167969 -7.265625 5.886719 -7.238281 C 4.40625 -7.082031 2.929688 -6.746094 1.523438 -6.261719 L 0.847656 -5.976562 C 0.703125 -5.886719 0.363281 -5.6875 0.363281 -5.476562 Z M 0.363281 -5.476562 "/></g></g></g></svg>