<svg xmlns="http://www.w3.org/2000/svg" xmlns:xlink="http://www.w3.org/1999/xlink" width="500" zoomAndPan="magnify" viewBox="0 0 375 187.499995" height="250" preserveAspectRatio="xMidYMid meet" version="1.0"><defs><g/></defs><path stroke-linecap="butt" transform="matrix(0.730728, 0, 0, 0.730728, 37.030453, 65.1563)" fill="none" stroke-linejoin="miter" d="M 36.121966 50.44193 C 36.121966 60.882076 37.944849 79.66151 46.898891 85.41348 C 48.695046 86.71783 50.624842 87.236362 52.447725 87.236362 C 72.15731 87.236362 91.898969 23.670679 96.688714 7.660316 L 100.542961 -5.335074 C 100.853012 -6.404213 100.542961 -5.671853 100.853012 -6.088817 L 98.928561 10.755474 C 96.170181 35.623657 90.311297 84.34434 80.908216 105.7004 C 79.529026 108.667262 74.947764 117.209686 74.947764 119.759583 C 74.947764 120.828723 75.567865 121.272416 76.326954 121.272416 C 76.979129 121.272416 77.59923 120.930291 78.042923 120.518672 L 82.522617 113.146956 C 93.930334 93.20216 99.056858 56.744506 102.365844 32.945463 C 103.745034 22.815367 104.70726 11.306081 105.883313 1.277554 C 106.711896 -5.335074 109.603918 -31.272396 108.326296 -36.815884 C 107.572553 -37.13128 106.947107 -37.339762 106.401845 -37.339762 C 104.268912 -37.339762 103.953516 -34.993001 103.301341 -32.341535 C 97.757853 -9.397803 92.000538 13.855979 83.249631 35.832139 C 77.941354 49.37279 70.569638 68.04531 60.23106 78.693939 C 57.344383 81.585961 54.896054 82.756668 52.757775 82.756668 C 45.182923 82.756668 42.419197 66.874602 42.419197 58.23061 C 42.419197 27.396629 49.347221 0.625379 59.685799 -28.070323 C 60.546456 -30.101688 63.540046 -37.232848 63.540046 -39.055731 C 63.540046 -39.055731 63.540046 -38.82052 63.096354 -39.371127 L 62.027214 -40.226438 C 58.616659 -39.472695 57.889645 -36.06214 55.751366 -31.999411 C 44.97444 -10.568511 36.121966 27.712026 36.121966 50.44193 Z M 114.195872 42.551681 C 111.849111 37.628294 116.745769 28.048805 117.504858 24.9483 C 121.225463 27.396629 118.568652 41.380973 114.195872 42.551681 Z M 108.85552 38.932644 C 108.85552 44.481477 111.202281 47.239857 113.98739 47.239857 C 117.162734 47.239857 121.123895 43.513906 122.711567 36.147536 C 125.079711 25.156782 119.947842 23.360628 119.429309 21.329263 C 119.947842 20.468606 120.915413 19.821777 121.225463 19.089416 C 121.54086 18.228759 120.915413 16.51279 119.530877 16.51279 C 114.29744 16.51279 108.85552 34.116171 108.85552 38.932644 Z M 128.90723 62.60339 C 128.90723 58.332178 132.002389 53.542434 134.557632 50.44193 C 135.829908 48.955826 138.406534 45.753753 140.10112 44.791528 C 140.10112 47.75839 140.208034 50.131879 139.475673 52.580208 C 138.513448 56.092331 136.172032 61.224201 133.28001 63.357134 C 132.526267 63.98258 131.248645 64.843237 130.28642 64.843237 C 129.554059 64.843237 128.90723 64.191062 128.90723 62.60339 Z M 127.939659 27.712026 C 127.939659 33.38381 135.412943 35.18531 138.72193 41.274059 C 137.134258 43.829302 125.49133 52.991827 125.49133 62.60339 C 125.49133 66.430909 127.629609 68.462274 130.623199 68.462274 C 133.825271 68.462274 137.861273 66.013945 140.961777 60.780508 C 148.098283 48.619047 143.720157 42.450112 144.16385 40.93728 C 144.372332 40.103351 151.95253 34.426221 153.123238 33.800775 L 160.361312 28.775819 C 162.836369 27.396629 163.044852 25.600475 161.323537 25.600475 C 160.361312 25.600475 158.982122 26.01744 157.185968 27.295061 L 147.264354 34.217739 C 145.649953 35.623657 144.16385 36.799711 142.447881 37.970418 C 136.899047 29.636477 128.90723 29.946527 134.557632 23.56911 C 136.172032 21.746228 135.829908 22.291489 138.406534 21.644659 C 139.03198 18.987848 138.069755 17.918709 136.588997 17.918709 C 133.488493 17.918709 127.939659 22.291489 127.939659 27.712026 Z M 159.939002 44.583046 C 163.242642 44.583046 161.970367 40.93728 162.617196 38.1789 C 163.03416 35.623657 163.996386 33.490724 165.065525 31.667841 C 166.760111 28.909462 167.305372 28.909462 171.368102 28.909462 C 172.53881 28.909462 174.126482 29.01103 175.511017 29.01103 C 177.64395 29.01103 179.359919 28.775819 179.359919 27.295061 C 179.359919 25.910526 176.056278 25.702044 172.955774 25.702044 C 171.132891 25.702044 169.336737 25.808957 168.374512 25.808957 C 165.065525 25.808957 164.41335 27.840322 162.825678 28.909462 C 162.825678 27.503543 163.03416 27.605112 163.03416 26.119008 C 163.03416 25.055214 163.03416 23.777593 163.141074 22.708453 C 163.477853 19.714863 163.996386 17.683498 161.109709 17.683498 C 158.762948 17.683498 158.554466 28.775819 158.554466 30.705616 C 158.66138 33.38381 158.554466 36.040622 158.66138 38.595865 C 158.66138 39.349608 157.800723 44.583046 159.939002 44.583046 Z M 259.684363 49.479704 L 259.449153 48.955826 C 257.861481 44.037784 258.716792 40.103351 253.381786 26.878097 C 248.041435 13.439014 239.188961 3.180622 227.679675 -5.441988 L 215.202818 -14.529673 C 213.695331 -15.593466 211.899177 -16.427395 211.353916 -18.250278 C 213.069885 -20.805521 221.061702 -23.146936 224.787653 -24.317644 C 229.919522 -25.830476 234.810835 -27.209666 240.049618 -28.588856 C 246.116984 -29.968046 266.713955 -34.891433 273.016532 -34.891433 C 266.607041 -7.366439 264.265626 11.40765 260.855071 38.387383 Z M 207.729533 -19.004021 C 207.729533 -16.325827 209.215637 -14.946637 210.830038 -13.770584 L 220.516441 -6.847906 C 226.065274 -2.678262 234.292302 2.97214 238.771996 8.622541 C 245.593106 17.266534 250.179714 24.63825 253.483355 36.457586 C 255.830116 44.898442 257.861481 56.846075 257.861481 66.013945 L 256.038598 96.297319 C 256.792341 96.741012 257.000823 97.366458 257.861481 97.366458 C 260.202896 97.366458 260.095982 92.678282 260.304464 90.545349 L 263.821933 55.883849 C 264.265626 52.681777 264.367194 50.131879 264.784158 47.031375 C 266.398559 35.623657 267.467698 24.9483 269.370766 13.102236 L 275.149465 -19.420985 C 275.459515 -21.45235 277.907845 -34.576037 278.324809 -35.516879 C 282.285971 -35.516879 284.7343 -35.960572 288.481633 -35.960572 C 296.478796 -35.960572 312.777827 -33.613811 321.213337 -31.582446 C 323.453184 -30.930271 324.939287 -30.518653 325.901513 -30.518653 C 326.76217 -30.518653 327.072221 -30.930271 327.072221 -32.341535 C 327.072221 -36.815884 294.864396 -39.88966 290.593184 -40.333352 C 289.967737 -40.333352 289.41713 -40.333352 288.690116 -40.333352 C 286.215058 -40.333352 283.349764 -40.226438 281.115263 -40.226438 C 280.463088 -40.226438 279.939209 -40.226438 279.393948 -40.226438 C 276.427087 -40.434921 278.768502 -41.295578 275.87648 -41.295578 C 274.080326 -41.295578 275.566429 -39.88966 272.257443 -39.579609 C 254.969458 -37.756726 237.702857 -33.822293 221.270184 -28.171892 L 213.379935 -24.862905 C 211.663967 -23.799111 207.729533 -21.45235 207.729533 -19.004021 Z M 273.855806 34.217739 C 273.855806 38.071987 274.165857 39.868141 278.127018 39.868141 C 281.222177 39.868141 284.531163 29.844959 286.5358 28.465769 C 286.5358 33.047031 289.946354 38.595865 295.286706 38.595865 C 297.109588 38.595865 299.140953 37.970418 301.273886 36.457586 L 304.475959 33.907689 C 309.896496 28.674251 309.271049 26.01744 307.656649 26.01744 C 307.031202 26.01744 306.272113 26.32749 305.753581 27.086579 C 304.240748 28.674251 303.930698 29.636477 301.899333 31.459359 C 299.557918 33.800775 297.318071 35.078396 295.286706 35.078396 C 293.046859 35.078396 291.143791 33.38381 290.283133 29.529563 C 289.320908 25.472179 291.143791 20.677088 287.396457 20.677088 C 286.017267 20.677088 281.639141 29.738045 279.506208 33.047031 L 278.645551 34.324653 C 278.127018 34.976828 278.437069 34.559864 278.127018 34.869914 C 278.127018 31.352445 279.607776 27.295061 280.986966 25.055214 C 284.08747 19.714863 286.225749 18.228759 287.84015 18.228759 C 289.844786 18.228759 291.143791 20.677088 292.629894 20.677088 C 295.388274 20.677088 292.629894 14.609722 287.604939 14.609722 C 280.158383 14.609722 273.855806 28.150373 273.855806 34.217739 Z M 313.638484 45.416974 C 318.636711 45.416974 322.69944 40.728798 325.254684 38.071987 C 326.970652 36.356018 333.374797 29.219512 333.374797 27.188147 C 333.374797 26.225922 333.038018 25.910526 332.621054 25.910526 C 330.589689 25.910526 324.939287 33.490724 324.522323 34.009257 C 322.907923 36.040622 317.364435 41.691023 313.948534 41.691023 C 311.088586 41.691023 309.912533 35.393792 309.912533 32.186374 C 309.912533 21.329263 314.157016 16.51279 309.265704 16.51279 C 307.127425 16.51279 306.058285 21.329263 305.748235 23.56911 C 304.577527 29.01103 304.786009 36.356018 307.335907 41.172491 C 308.506615 43.177127 310.746462 45.416974 313.638484 45.416974 Z M 310.227929 3.073708 C 310.227929 5.420469 311.607119 6.484263 313.093223 6.484263 C 315.226156 6.484263 317.466003 4.142847 315.461367 0.21376 C 314.809191 -0.962293 314.055448 -1.405986 313.328433 -1.405986 C 311.708687 -1.405986 310.227929 0.625379 310.227929 3.073708 Z M 334.000244 25.702044 C 334.753987 23.023849 338.26611 18.854206 341.158132 18.335673 C 340.848082 21.746228 336.678438 24.296125 334.000244 25.702044 Z M 329.205154 28.257287 C 329.205154 31.250877 329.103585 33.907689 331.653483 36.457586 C 333.476366 38.280469 335.614644 39.034212 337.849146 39.034212 C 344.360205 39.034212 351.705193 32.528499 355.661008 28.567337 C 356.62858 27.396629 356.62858 27.295061 356.286455 25.702044 C 353.111111 25.702044 354.805697 26.119008 350.427571 29.529563 C 349.700556 30.080169 349.363777 30.497134 348.50312 31.149309 C 346.39157 32.736981 341.911876 35.832139 338.164542 35.832139 C 336.88692 35.832139 335.614644 35.393792 334.647073 34.426221 C 332.824191 32.630067 333.059401 30.914098 333.059401 28.674251 C 336.368388 28.465769 340.195907 25.365265 341.911876 23.467542 C 345.194134 19.297898 345.194134 15.026686 340.505957 15.026686 C 335.406162 15.026686 329.205154 22.916935 329.205154 28.257287 Z M 357.141767 58.123696 C 351.598279 58.123696 357.89551 52.136516 361.621461 49.789755 C 363.128947 48.827529 369.303227 45.416974 370.709146 45.00001 C 368.13252 49.789755 363.545912 58.123696 357.141767 58.123696 Z M 353.731212 38.280469 C 353.731212 41.274059 353.212679 45.753753 356.072627 45.753753 C 358.103992 45.753753 359.718393 36.249104 365.058744 29.738045 C 367.170294 27.295061 368.886263 26.225922 370.163885 26.225922 C 373.365957 26.225922 374.226614 32.320016 372.842079 38.387383 C 372.296818 40.835712 372.19525 40.418748 370.163885 41.380973 C 364.930447 43.930871 351.598279 50.44193 351.598279 56.61621 C 351.598279 59.91985 354.067991 61.325769 357.040198 61.325769 C 359.50991 61.325769 362.273636 60.470457 364.615051 58.984353 C 372.5053 54.16788 375.081926 44.347835 375.915855 42.867077 C 376.466461 42.00642 383.939746 38.1789 387.350301 35.730571 C 389.039541 34.217739 390.760855 33.047031 392.348527 31.352445 C 392.765492 31.149309 397.897361 26.642886 393.519235 26.642886 C 392.765492 26.642886 387.868833 31.250877 385.944382 32.630067 C 382.116863 35.393792 381.256206 35.730571 377.193476 37.863504 C 377.193476 34.661432 378.492481 31.015666 376.022769 26.32749 C 374.643579 23.879161 372.713782 22.708453 370.607578 22.708453 C 367.817124 22.708453 364.823533 24.63825 362.583686 27.712026 C 361.621461 28.775819 360.787532 29.946527 360.135357 31.352445 L 357.793942 35.18531 C 357.793942 26.535972 360.787532 3.624315 363.128947 -5.126592 C 363.235861 -6.088817 363.754394 -7.574921 363.754394 -7.9117 C 363.861308 -8.64406 363.235861 -9.916336 362.273636 -9.916336 C 361.412979 -9.916336 360.343839 -9.087753 359.280045 -6.195731 C 355.345612 3.832797 353.731212 27.605112 353.731212 38.280469 Z M 353.731212 38.280469 " stroke="#fafaf8" stroke-width="5.33325" stroke-opacity="1" stroke-miterlimit="4"/><g fill="#cdbab1" fill-opacity="1"><g transform="translate(61.863784, 98.039055)"><g><path d="M 1.558594 3.976562 C 1.558594 11.613281 2.882812 25.332031 9.429688 29.539062 C 10.753906 30.472656 12.160156 30.863281 13.484375 30.863281 C 27.902344 30.863281 42.320312 -15.585938 45.828125 -27.277344 L 48.632812 -36.789062 C 48.867188 -37.566406 48.632812 -37.019531 48.867188 -37.332031 L 47.464844 -25.019531 C 45.4375 -6.859375 41.152344 28.757812 34.292969 44.347656 C 33.28125 46.53125 29.929688 52.765625 29.929688 54.636719 C 29.929688 55.414062 30.394531 55.726562 30.941406 55.726562 C 31.410156 55.726562 31.878906 55.492188 32.1875 55.179688 L 35.460938 49.804688 C 43.800781 35.230469 47.542969 8.574219 49.960938 -8.808594 C 50.972656 -16.210938 51.675781 -24.628906 52.53125 -31.957031 C 53.15625 -36.789062 55.257812 -55.726562 54.324219 -59.78125 C 53.777344 -60.011719 53.3125 -60.167969 52.921875 -60.167969 C 51.363281 -60.167969 51.128906 -58.453125 50.660156 -56.507812 C 46.609375 -39.75 42.398438 -22.757812 36.007812 -6.703125 C 32.109375 3.195312 26.734375 16.835938 19.171875 24.628906 C 17.070312 26.734375 15.277344 27.589844 13.71875 27.589844 C 8.183594 27.589844 6.15625 15.976562 6.15625 9.664062 C 6.15625 -12.859375 11.222656 -32.421875 18.785156 -53.386719 C 19.40625 -54.871094 21.589844 -60.089844 21.589844 -61.417969 C 21.589844 -61.417969 21.589844 -61.261719 21.277344 -61.648438 L 20.5 -62.273438 C 18.003906 -61.726562 17.457031 -59.234375 15.898438 -56.273438 C 8.027344 -40.605469 1.558594 -12.625 1.558594 3.976562 Z M 1.558594 3.976562 "/></g></g></g><g fill="#cdbab1" fill-opacity="1"><g transform="translate(116.575374, 98.039055)"><g><path d="M 3.898438 -1.792969 C 2.183594 -5.378906 5.765625 -12.390625 6.3125 -14.652344 C 9.039062 -12.859375 7.09375 -2.648438 3.898438 -1.792969 Z M 0 -4.441406 C 0 -0.390625 1.714844 1.636719 3.742188 1.636719 C 6.078125 1.636719 8.964844 -1.089844 10.132812 -6.46875 C 11.847656 -14.496094 8.105469 -15.820312 7.714844 -17.300781 C 8.105469 -17.925781 8.808594 -18.394531 9.039062 -18.9375 C 9.273438 -19.5625 8.808594 -20.808594 7.792969 -20.808594 C 3.976562 -20.808594 0 -7.949219 0 -4.441406 Z M 0 -4.441406 "/></g></g></g><g fill="#cdbab1" fill-opacity="1"><g transform="translate(130.292243, 98.039055)"><g><path d="M 0.933594 12.859375 C 0.933594 9.742188 3.195312 6.234375 5.066406 3.976562 C 6 2.882812 7.871094 0.546875 9.117188 -0.15625 C 9.117188 2.027344 9.195312 3.742188 8.652344 5.535156 C 7.949219 8.105469 6.234375 11.847656 4.128906 13.40625 C 3.585938 13.875 2.648438 14.496094 1.949219 14.496094 C 1.402344 14.496094 0.933594 14.027344 0.933594 12.859375 Z M 0.234375 -12.625 C 0.234375 -8.496094 5.691406 -7.171875 8.105469 -2.726562 C 6.9375 -0.855469 -1.558594 5.84375 -1.558594 12.859375 C -1.558594 15.664062 0 17.148438 2.183594 17.148438 C 4.519531 17.148438 7.480469 15.355469 9.742188 11.535156 C 14.964844 2.648438 11.769531 -1.871094 12.082031 -2.960938 C 12.238281 -3.585938 17.769531 -7.714844 18.628906 -8.183594 L 23.925781 -11.847656 C 25.71875 -12.859375 25.875 -14.183594 24.628906 -14.183594 C 23.925781 -14.183594 22.914062 -13.875 21.589844 -12.9375 L 14.339844 -7.871094 C 13.171875 -6.859375 12.082031 -6 10.832031 -5.144531 C 6.78125 -11.222656 0.933594 -10.988281 5.066406 -15.664062 C 6.234375 -16.992188 6 -16.601562 7.871094 -17.070312 C 8.339844 -19.015625 7.636719 -19.796875 6.546875 -19.796875 C 4.285156 -19.796875 0.234375 -16.601562 0.234375 -12.625 Z M 0.234375 -12.625 "/></g></g></g><g fill="#cdbab1" fill-opacity="1"><g transform="translate(152.815958, 98.039055)"><g><path d="M 1.089844 -0.3125 C 3.507812 -0.3125 2.570312 -2.960938 3.039062 -4.988281 C 3.351562 -6.859375 4.054688 -8.417969 4.832031 -9.742188 C 6.078125 -11.769531 6.46875 -11.769531 9.429688 -11.769531 C 10.289062 -11.769531 11.457031 -11.691406 12.46875 -11.691406 C 14.027344 -11.691406 15.277344 -11.847656 15.277344 -12.9375 C 15.277344 -13.949219 12.859375 -14.105469 10.601562 -14.105469 C 9.273438 -14.105469 7.949219 -14.027344 7.25 -14.027344 C 4.832031 -14.027344 4.363281 -12.546875 3.195312 -11.769531 C 3.195312 -12.78125 3.351562 -12.703125 3.351562 -13.796875 C 3.351562 -14.574219 3.351562 -15.511719 3.429688 -16.289062 C 3.664062 -18.472656 4.054688 -19.953125 1.949219 -19.953125 C 0.234375 -19.953125 0.078125 -11.847656 0.078125 -10.445312 C 0.15625 -8.496094 0.078125 -6.546875 0.15625 -4.675781 C 0.15625 -4.128906 -0.46875 -0.3125 1.089844 -0.3125 Z M 1.089844 -0.3125 "/></g></g></g><g fill="#cdbab1" fill-opacity="1"><g transform="translate(165.519648, 98.039055)"><g/></g></g><g fill="#cdbab1" fill-opacity="1"><g transform="translate(185.705259, 98.039055)"><g><path d="M 41.074219 3.273438 L 40.917969 2.882812 C 39.75 -0.703125 40.371094 -3.585938 36.476562 -13.25 C 32.578125 -23.070312 26.109375 -30.550781 17.691406 -36.867188 L 8.574219 -43.488281 C 7.480469 -44.269531 6.15625 -44.894531 5.765625 -46.21875 C 7.015625 -48.089844 12.859375 -49.804688 15.585938 -50.660156 C 19.328125 -51.75 22.914062 -52.765625 26.734375 -53.777344 C 31.175781 -54.792969 46.21875 -58.375 50.816406 -58.375 C 46.140625 -38.269531 44.425781 -24.550781 41.929688 -4.832031 Z M 3.117188 -46.761719 C 3.117188 -44.816406 4.207031 -43.800781 5.378906 -42.945312 L 12.46875 -37.878906 C 16.523438 -34.839844 22.523438 -30.707031 25.796875 -26.578125 C 30.785156 -20.265625 34.136719 -14.886719 36.554688 -6.234375 C 38.269531 -0.078125 39.75 8.652344 39.75 15.355469 L 38.425781 37.488281 C 38.96875 37.800781 39.125 38.269531 39.75 38.269531 C 41.464844 38.269531 41.386719 34.839844 41.542969 33.28125 L 44.113281 7.949219 C 44.425781 5.613281 44.503906 3.742188 44.816406 1.480469 C 45.984375 -6.859375 46.761719 -14.652344 48.167969 -23.304688 L 52.375 -47.074219 C 52.609375 -48.554688 54.402344 -58.144531 54.714844 -58.84375 C 57.597656 -58.84375 59.390625 -59.15625 62.117188 -59.15625 C 67.964844 -59.15625 79.886719 -57.441406 86.046875 -55.960938 C 87.683594 -55.492188 88.773438 -55.179688 89.472656 -55.179688 C 90.097656 -55.179688 90.332031 -55.492188 90.332031 -56.507812 C 90.332031 -59.78125 66.792969 -62.039062 63.675781 -62.351562 C 63.207031 -62.351562 62.820312 -62.351562 62.273438 -62.351562 C 60.480469 -62.351562 58.375 -62.273438 56.738281 -62.273438 C 56.273438 -62.273438 55.882812 -62.273438 55.492188 -62.273438 C 53.3125 -62.429688 55.023438 -63.054688 52.921875 -63.054688 C 51.597656 -63.054688 52.6875 -62.039062 50.269531 -61.804688 C 37.644531 -60.480469 25.019531 -57.597656 13.015625 -53.464844 L 7.25 -51.050781 C 6 -50.269531 3.117188 -48.554688 3.117188 -46.761719 Z M 3.117188 -46.761719 "/></g></g></g><g fill="#cdbab1" fill-opacity="1"><g transform="translate(237.143515, 98.039055)"><g><path d="M 0 -7.871094 C 0 -5.066406 0.234375 -3.742188 3.117188 -3.742188 C 5.378906 -3.742188 7.792969 -11.066406 9.273438 -12.082031 C 9.273438 -8.730469 11.769531 -4.675781 15.664062 -4.675781 C 16.992188 -4.675781 18.472656 -5.144531 20.03125 -6.234375 L 22.367188 -8.105469 C 26.34375 -11.925781 25.875 -13.875 24.707031 -13.875 C 24.238281 -13.875 23.695312 -13.640625 23.304688 -13.09375 C 22.210938 -11.925781 21.980469 -11.222656 20.5 -9.898438 C 18.785156 -8.183594 17.148438 -7.25 15.664062 -7.25 C 14.027344 -7.25 12.625 -8.496094 12.003906 -11.300781 C 11.300781 -14.261719 12.625 -17.769531 9.898438 -17.769531 C 8.886719 -17.769531 5.691406 -11.144531 4.128906 -8.730469 L 3.507812 -7.792969 C 3.117188 -7.328125 3.351562 -7.636719 3.117188 -7.402344 C 3.117188 -9.976562 4.207031 -12.9375 5.222656 -14.574219 C 7.480469 -18.472656 9.039062 -19.5625 10.210938 -19.5625 C 11.691406 -19.5625 12.625 -17.769531 13.71875 -17.769531 C 15.742188 -17.769531 13.71875 -22.210938 10.054688 -22.210938 C 4.597656 -22.210938 0 -12.3125 0 -7.871094 Z M 0 -7.871094 "/></g></g></g><g fill="#cdbab1" fill-opacity="1"><g transform="translate(259.745157, 98.039055)"><g><path d="M 6.46875 0.3125 C 10.132812 0.3125 13.09375 -3.117188 14.964844 -5.066406 C 16.210938 -6.3125 20.886719 -11.535156 20.886719 -13.015625 C 20.886719 -13.71875 20.652344 -13.949219 20.34375 -13.949219 C 18.863281 -13.949219 14.730469 -8.417969 14.417969 -8.027344 C 13.25 -6.546875 9.195312 -2.417969 6.703125 -2.417969 C 4.597656 -2.417969 3.742188 -7.015625 3.742188 -9.351562 C 3.742188 -17.300781 6.859375 -20.808594 3.273438 -20.808594 C 1.714844 -20.808594 0.933594 -17.300781 0.703125 -15.664062 C -0.15625 -11.691406 0 -6.3125 1.871094 -2.804688 C 2.726562 -1.324219 4.363281 0.3125 6.46875 0.3125 Z M 3.976562 -30.628906 C 3.976562 -28.914062 4.988281 -28.136719 6.078125 -28.136719 C 7.636719 -28.136719 9.273438 -29.851562 7.792969 -32.734375 C 7.328125 -33.59375 6.78125 -33.902344 6.234375 -33.902344 C 5.066406 -33.902344 3.976562 -32.421875 3.976562 -30.628906 Z M 3.976562 -30.628906 "/></g></g></g><g fill="#cdbab1" fill-opacity="1"><g transform="translate(277.514726, 98.039055)"><g><path d="M 3.585938 -14.105469 C 4.128906 -16.054688 6.703125 -19.09375 8.808594 -19.484375 C 8.574219 -16.992188 5.535156 -15.121094 3.585938 -14.105469 Z M 0.078125 -12.238281 C 0.078125 -10.054688 0 -8.105469 1.871094 -6.234375 C 3.195312 -4.910156 4.753906 -4.363281 6.390625 -4.363281 C 11.144531 -4.363281 16.523438 -9.117188 19.40625 -12.003906 C 20.109375 -12.859375 20.109375 -12.9375 19.875 -14.105469 C 17.535156 -14.105469 18.785156 -13.796875 15.585938 -11.300781 C 15.042969 -10.910156 14.808594 -10.601562 14.183594 -10.132812 C 12.625 -8.964844 9.351562 -6.703125 6.625 -6.703125 C 5.691406 -6.703125 4.753906 -7.015625 4.054688 -7.714844 C 2.726562 -9.039062 2.882812 -10.289062 2.882812 -11.925781 C 5.300781 -12.082031 8.105469 -14.339844 9.351562 -15.742188 C 11.769531 -18.785156 11.769531 -21.902344 8.339844 -21.902344 C 4.597656 -21.902344 0.078125 -16.132812 0.078125 -12.238281 Z M 0.078125 -12.238281 "/></g></g></g><g fill="#cdbab1" fill-opacity="1"><g transform="translate(294.426991, 98.039055)"><g><path d="M 3.585938 9.585938 C -0.46875 9.585938 4.128906 5.222656 6.859375 3.507812 C 7.949219 2.804688 12.46875 0.3125 13.484375 0 C 11.613281 3.507812 8.261719 9.585938 3.585938 9.585938 Z M 1.089844 -4.910156 C 1.089844 -2.726562 0.703125 0.546875 2.804688 0.546875 C 4.285156 0.546875 5.457031 -6.390625 9.351562 -11.144531 C 10.910156 -12.9375 12.160156 -13.71875 13.09375 -13.71875 C 15.433594 -13.71875 16.054688 -9.273438 15.042969 -4.832031 C 14.652344 -3.039062 14.574219 -3.351562 13.09375 -2.648438 C 9.273438 -0.78125 -0.46875 3.976562 -0.46875 8.496094 C -0.46875 10.910156 1.324219 11.925781 3.507812 11.925781 C 5.300781 11.925781 7.328125 11.300781 9.039062 10.210938 C 14.808594 6.703125 16.679688 -0.46875 17.300781 -1.558594 C 17.691406 -2.183594 23.148438 -4.988281 25.640625 -6.78125 C 26.890625 -7.871094 28.136719 -8.730469 29.304688 -9.976562 C 29.617188 -10.132812 33.359375 -13.40625 30.164062 -13.40625 C 29.617188 -13.40625 26.03125 -10.054688 24.628906 -9.039062 C 21.824219 -7.015625 21.199219 -6.78125 18.238281 -5.222656 C 18.238281 -7.558594 19.171875 -10.210938 17.378906 -13.640625 C 16.367188 -15.433594 14.964844 -16.289062 13.40625 -16.289062 C 11.378906 -16.289062 9.195312 -14.886719 7.558594 -12.625 C 6.859375 -11.847656 6.234375 -10.988281 5.765625 -9.976562 L 4.054688 -7.171875 C 4.054688 -13.484375 6.234375 -30.242188 7.949219 -36.632812 C 8.027344 -37.332031 8.417969 -38.425781 8.417969 -38.65625 C 8.496094 -39.203125 8.027344 -40.140625 7.328125 -40.140625 C 6.703125 -40.140625 5.921875 -39.515625 5.144531 -37.410156 C 2.261719 -30.085938 1.089844 -12.703125 1.089844 -4.910156 Z M 1.089844 -4.910156 "/></g></g></g></svg>