<?xml version="1.0" encoding="UTF-8"?>
<svg id="Layer_1" data-name="Layer 1" xmlns="http://www.w3.org/2000/svg" viewBox="0 0 355.12 163.59">
  <defs>
    <style>
      .cls-1 {
        fill: none;
        stroke: #fafaf8;
        stroke-miterlimit: 3.9;
        stroke-width: 5.2px;
      }

      .cls-2 {
        fill: #cdbab1;
      }
    </style>
  </defs>
  <path class="cls-1" d="m2.6,91.98c0,10.17,1.78,28.47,10.5,34.07,1.75,1.27,3.63,1.78,5.41,1.78,19.2,0,38.44-61.93,43.1-77.53l3.76-12.66c.3-1.04,0-.33.3-.73l-1.88,16.41c-2.69,24.23-8.4,71.7-17.56,92.51-1.34,2.89-5.81,11.21-5.81,13.7,0,1.04.6,1.47,1.34,1.47.64,0,1.24-.33,1.67-.73l4.36-7.18c11.11-19.43,16.11-54.95,19.33-78.14,1.34-9.87,2.28-21.08,3.43-30.85.81-6.44,3.62-31.71,2.38-37.11-.73-.31-1.34-.51-1.87-.51-2.08,0-2.39,2.29-3.02,4.87-5.4,22.35-11.01,45.01-19.54,66.42-5.17,13.19-12.35,31.39-22.43,41.76-2.81,2.82-5.2,3.96-7.28,3.96-7.38,0-10.07-15.47-10.07-23.9,0-30.04,6.75-56.13,16.82-84.08.84-1.98,3.76-8.93,3.76-10.7,0,0,0,.23-.43-.31l-1.04-.83c-3.32.73-4.03,4.06-6.11,8.02C11.22,32.54,2.6,69.83,2.6,91.98Zm76.07-7.69c-2.29-4.8,2.48-14.13,3.22-17.15,3.62,2.39,1.04,16.01-3.22,17.15Zm-5.2-3.53c0,5.41,2.29,8.09,5,8.09,3.09,0,6.95-3.63,8.5-10.81,2.31-10.71-2.69-12.46-3.2-14.44.51-.84,1.45-1.47,1.75-2.18.31-.84-.3-2.51-1.65-2.51-5.1,0-10.4,17.15-10.4,21.84Zm19.54,23.06c0-4.16,3.02-8.83,5.51-11.85,1.24-1.45,3.75-4.57,5.4-5.51,0,2.89.1,5.2-.61,7.59-.94,3.42-3.22,8.42-6.04,10.5-.73.61-1.98,1.45-2.92,1.45-.71,0-1.34-.64-1.34-2.18Zm-.94-33.99c0,5.53,7.28,7.28,10.51,13.21-1.55,2.49-12.89,11.42-12.89,20.78,0,3.73,2.08,5.71,5,5.71,3.12,0,7.05-2.39,10.07-7.48,6.95-11.85,2.69-17.86,3.12-19.33.2-.81,7.59-6.34,8.73-6.95l7.05-4.9c2.41-1.34,2.61-3.09.94-3.09-.94,0-2.28.41-4.03,1.65l-9.67,6.74c-1.57,1.37-3.02,2.52-4.69,3.66-5.41-8.12-13.19-7.82-7.69-14.03,1.57-1.78,1.24-1.24,3.75-1.88.61-2.59-.33-3.63-1.77-3.63-3.02,0-8.43,4.26-8.43,9.54Zm31.18,16.44c3.22,0,1.98-3.55,2.61-6.24.41-2.49,1.34-4.57,2.39-6.34,1.65-2.69,2.18-2.69,6.14-2.69,1.14,0,2.69.1,4.04.1,2.08,0,3.75-.23,3.75-1.67,0-1.35-3.22-1.55-6.24-1.55-1.78,0-3.53.1-4.46.1-3.22,0-3.86,1.98-5.41,3.02,0-1.37.2-1.27.2-2.72,0-1.04,0-2.28.1-3.32.33-2.92.83-4.9-1.98-4.9-2.29,0-2.49,10.81-2.49,12.69.1,2.61,0,5.2.1,7.69,0,.73-.84,5.83,1.24,5.83Zm97.18,4.77l-.23-.51c-1.55-4.79-.71-8.63-5.91-21.51-5.2-13.09-13.83-23.09-25.04-31.49l-12.16-8.85c-1.47-1.04-3.22-1.85-3.75-3.63,1.67-2.49,9.46-4.77,13.09-5.91,5-1.47,9.77-2.82,14.87-4.16,5.91-1.34,25.98-6.14,32.12-6.14-6.24,26.82-8.53,45.11-11.85,71.4l-1.14,10.81Zm-50.62-66.72c0,2.61,1.45,3.95,3.02,5.1l9.44,6.74c5.41,4.06,13.42,9.57,17.79,15.07,6.65,8.42,11.11,15.6,14.33,27.12,2.29,8.22,4.27,19.86,4.27,28.8l-1.78,29.51c.73.43.94,1.04,1.78,1.04,2.28,0,2.18-4.57,2.38-6.65l3.43-33.77c.43-3.12.53-5.6.94-8.63,1.57-11.11,2.61-21.52,4.47-33.06l5.63-31.69c.3-1.98,2.69-14.77,3.09-15.68,3.86,0,6.24-.43,9.9-.43,7.79,0,23.67,2.29,31.89,4.27,2.18.64,3.63,1.04,4.57,1.04.84,0,1.14-.4,1.14-1.78,0-4.36-31.38-7.35-35.54-7.79h-1.85c-2.41,0-5.2.1-7.38.1h-1.68c-2.89-.2-.61-1.04-3.43-1.04-1.75,0-.3,1.37-3.53,1.67-16.84,1.78-33.67,5.61-49.68,11.11l-7.69,3.22c-1.67,1.04-5.51,3.32-5.51,5.71Zm64.43,51.85c0,3.76.3,5.51,4.16,5.51,3.02,0,6.24-9.77,8.19-11.11,0,4.46,3.32,9.87,8.53,9.87,1.78,0,3.76-.61,5.83-2.08l3.12-2.48c5.28-5.1,4.67-7.69,3.1-7.69-.61,0-1.35.3-1.85,1.04-1.47,1.55-1.78,2.48-3.76,4.26-2.28,2.28-4.46,3.53-6.44,3.53-2.18,0-4.04-1.65-4.87-5.41-.94-3.95.84-8.63-2.81-8.63-1.34,0-5.61,8.83-7.69,12.05l-.84,1.24c-.51.64-.2.23-.51.53,0-3.43,1.44-7.38,2.79-9.56,3.02-5.2,5.1-6.65,6.68-6.65,1.95,0,3.22,2.39,4.67,2.39,2.69,0,0-5.91-4.9-5.91-7.26,0-13.4,13.19-13.4,19.1Zm38.76,10.91c4.87,0,8.83-4.57,11.32-7.16,1.67-1.67,7.91-8.63,7.91-10.6,0-.94-.33-1.24-.73-1.24-1.98,0-7.48,7.39-7.89,7.89-1.57,1.98-6.97,7.48-10.3,7.48-2.79,0-3.93-6.14-3.93-9.26,0-10.58,4.14-15.27-.63-15.27-2.08,0-3.13,4.69-3.43,6.88-1.14,5.3-.94,12.46,1.55,17.15,1.14,1.95,3.32,4.14,6.14,4.14Zm-3.32-41.26c0,2.29,1.34,3.32,2.79,3.32,2.08,0,4.26-2.28,2.31-6.11-.64-1.15-1.37-1.58-2.08-1.58-1.58,0-3.02,1.98-3.02,4.36Zm23.16,22.05c.73-2.61,4.16-6.67,6.97-7.18-.3,3.32-4.36,5.81-6.97,7.18Zm-4.67,2.49c0,2.92-.1,5.51,2.39,7.99,1.78,1.78,3.86,2.51,6.04,2.51,6.34,0,13.5-6.34,17.35-10.2.94-1.14.94-1.24.61-2.79-3.09,0-1.44.41-5.71,3.73-.71.54-1.04.94-1.88,1.58-2.06,1.55-6.42,4.56-10.07,4.56-1.24,0-2.48-.43-3.43-1.37-1.78-1.75-1.55-3.42-1.55-5.6,3.22-.2,6.95-3.22,8.63-5.07,3.2-4.06,3.2-8.22-1.37-8.22-4.97,0-11.01,7.69-11.01,12.89Zm27.22,29.1c-5.4,0,.73-5.83,4.36-8.12,1.47-.94,7.48-4.26,8.85-4.67-2.51,4.67-6.98,12.79-13.22,12.79Zm-3.32-19.33c0,2.92-.51,7.28,2.28,7.28,1.98,0,3.55-9.26,8.76-15.6,2.06-2.38,3.73-3.42,4.97-3.42,3.12,0,3.96,5.94,2.61,11.85-.53,2.39-.63,1.98-2.61,2.92-5.1,2.48-18.09,8.83-18.09,14.84,0,3.22,2.41,4.59,5.3,4.59,2.41,0,5.1-.83,7.38-2.28,7.69-4.69,10.2-14.26,11.01-15.7.54-.84,7.82-4.57,11.14-6.95,1.65-1.47,3.32-2.61,4.87-4.27.41-.2,5.41-4.59,1.14-4.59-.73,0-5.51,4.49-7.38,5.83-3.73,2.69-4.57,3.02-8.53,5.1,0-3.12,1.27-6.67-1.14-11.24-1.34-2.39-3.22-3.53-5.28-3.53-2.72,0-5.64,1.88-7.82,4.88-.94,1.04-1.75,2.18-2.39,3.55l-2.28,3.73c0-8.43,2.92-30.75,5.2-39.28.1-.94.61-2.39.61-2.71.1-.71-.51-1.95-1.44-1.95-.84,0-1.88.81-2.92,3.63-3.83,9.77-5.41,32.93-5.41,43.33Z"/>
  <path class="cls-2" d="m2.59,91.98c0,10.18,1.77,28.47,10.49,34.08,1.77,1.24,3.64,1.77,5.41,1.77,19.22,0,38.45-61.93,43.13-77.52l3.74-12.68c.31-1.04,0-.31.31-.72l-1.87,16.42c-2.7,24.21-8.42,71.7-17.56,92.49-1.35,2.91-5.82,11.22-5.82,13.72,0,1.04.62,1.45,1.35,1.45.63,0,1.25-.31,1.66-.73l4.36-7.17c11.12-19.43,16.11-54.97,19.33-78.15,1.35-9.87,2.29-21.09,3.43-30.86.83-6.44,3.64-31.69,2.39-37.1-.73-.31-1.35-.52-1.87-.52-2.08,0-2.39,2.29-3.02,4.88-5.4,22.34-11.02,45-19.54,66.41-5.2,13.2-12.36,31.39-22.45,41.78-2.8,2.81-5.19,3.95-7.27,3.95-7.38,0-10.08-15.48-10.08-23.9,0-30.03,6.76-56.11,16.84-84.07.83-1.98,3.74-8.94,3.74-10.71,0,0,0,.21-.42-.31l-1.04-.83c-3.33.73-4.06,4.05-6.14,8C11.22,32.54,2.59,69.84,2.59,91.98Z"/>
  <path class="cls-2" d="m78.66,84.29c-2.29-4.78,2.49-14.13,3.22-17.15,3.64,2.39,1.04,16.01-3.22,17.15Zm-5.2-3.53c0,5.4,2.29,8.1,4.99,8.1,3.11,0,6.96-3.64,8.52-10.81,2.29-10.7-2.7-12.47-3.22-14.44.52-.83,1.46-1.46,1.77-2.18.31-.83-.31-2.49-1.66-2.49-5.09,0-10.39,17.15-10.39,21.82Z"/>
  <path class="cls-2" d="m93,103.82c0-4.16,3.02-8.83,5.51-11.84,1.24-1.46,3.74-4.57,5.4-5.51,0,2.91.1,5.2-.62,7.59-.94,3.43-3.22,8.42-6.03,10.49-.72.63-1.97,1.45-2.91,1.45-.73,0-1.35-.63-1.35-2.18Zm-.93-33.98c0,5.51,7.28,7.27,10.49,13.2-1.56,2.49-12.89,11.43-12.89,20.78,0,3.74,2.08,5.72,4.99,5.72,3.11,0,7.06-2.39,10.08-7.48,6.96-11.85,2.7-17.88,3.12-19.33.21-.83,7.58-6.34,8.73-6.96l7.06-4.89c2.39-1.35,2.6-3.11.94-3.11-.94,0-2.29.41-4.05,1.66l-9.67,6.76c-1.56,1.35-3.01,2.49-4.68,3.64-5.4-8.1-13.2-7.79-7.69-14.03,1.56-1.77,1.24-1.25,3.74-1.88.62-2.59-.31-3.64-1.77-3.64-3.02,0-8.42,4.26-8.42,9.56Z"/>
  <path class="cls-2" d="m123.24,86.26c3.22,0,1.97-3.53,2.6-6.23.42-2.49,1.35-4.57,2.39-6.34,1.66-2.7,2.18-2.7,6.13-2.7,1.15,0,2.7.1,4.05.1,2.08,0,3.74-.21,3.74-1.66,0-1.35-3.22-1.56-6.23-1.56-1.77,0-3.54.1-4.47.1-3.22,0-3.85,1.97-5.41,3.01,0-1.35.21-1.24.21-2.7,0-1.04,0-2.29.1-3.32.31-2.91.83-4.89-1.97-4.89-2.29,0-2.49,10.81-2.49,12.68.1,2.6,0,5.2.1,7.69,0,.73-.83,5.82,1.24,5.82Z"/>
  <path class="cls-2" d="m220.4,91.04l-.21-.52c-1.56-4.78-.73-8.63-5.92-21.51-5.2-13.09-13.82-23.07-25.05-31.49l-12.16-8.83c-1.46-1.04-3.22-1.88-3.74-3.64,1.67-2.49,9.46-4.78,13.09-5.92,4.99-1.45,9.77-2.81,14.86-4.16,5.92-1.35,25.98-6.13,32.11-6.13-6.23,26.81-8.52,45.1-11.85,71.39l-1.14,10.81Zm-50.61-66.71c0,2.59,1.45,3.95,3.02,5.09l9.45,6.76c5.41,4.05,13.41,9.56,17.77,15.07,6.65,8.42,11.12,15.59,14.34,27.13,2.29,8.21,4.26,19.85,4.26,28.79l-1.77,29.51c.72.42.93,1.04,1.77,1.04,2.29,0,2.18-4.57,2.39-6.65l3.43-33.78c.42-3.11.52-5.61.94-8.63,1.56-11.12,2.59-21.51,4.47-33.05l5.61-31.69c.31-1.97,2.7-14.76,3.12-15.69,3.84,0,6.23-.42,9.87-.42,7.8,0,23.69,2.29,31.91,4.26,2.18.63,3.64,1.04,4.57,1.04.83,0,1.15-.42,1.15-1.77,0-4.36-31.39-7.38-35.54-7.79h-1.87c-2.39,0-5.2.1-7.38.1h-1.66c-2.91-.21-.63-1.04-3.43-1.04-1.77,0-.31,1.35-3.54,1.67-16.83,1.77-33.67,5.61-49.67,11.12l-7.69,3.22c-1.67,1.04-5.51,3.33-5.51,5.72Z"/>
  <path class="cls-2" d="m234.22,76.18c0,3.74.31,5.51,4.16,5.51,3.02,0,6.23-9.77,8.21-11.12,0,4.47,3.33,9.88,8.52,9.88,1.77,0,3.74-.63,5.82-2.08l3.11-2.49c5.3-5.09,4.68-7.69,3.12-7.69-.63,0-1.35.31-1.87,1.04-1.46,1.56-1.77,2.49-3.74,4.26-2.29,2.29-4.47,3.53-6.45,3.53-2.18,0-4.05-1.66-4.88-5.4-.94-3.95.83-8.63-2.81-8.63-1.35,0-5.61,8.83-7.69,12.05l-.83,1.25c-.52.62-.21.21-.52.52,0-3.43,1.45-7.38,2.81-9.56,3.01-5.2,5.09-6.65,6.65-6.65,1.97,0,3.22,2.39,4.68,2.39,2.7,0,0-5.92-4.89-5.92-7.28,0-13.41,13.2-13.41,19.12Z"/>
  <path class="cls-2" d="m272.98,87.09c4.89,0,8.83-4.57,11.33-7.17,1.66-1.66,7.9-8.63,7.9-10.6,0-.94-.31-1.24-.72-1.24-1.97,0-7.48,7.38-7.9,7.9-1.56,1.97-6.96,7.48-10.29,7.48-2.81,0-3.95-6.13-3.95-9.24,0-10.6,4.16-15.28-.63-15.28-2.08,0-3.12,4.68-3.43,6.86-1.15,5.3-.94,12.47,1.56,17.15,1.14,1.97,3.32,4.16,6.13,4.16Zm-3.32-41.26c0,2.29,1.35,3.32,2.8,3.32,2.08,0,4.26-2.29,2.29-6.13-.62-1.15-1.35-1.56-2.08-1.56-1.56,0-3.01,1.97-3.01,4.36Z"/>
  <path class="cls-2" d="m292.83,67.87c.72-2.6,4.16-6.65,6.96-7.17-.31,3.32-4.36,5.82-6.96,7.17Zm-4.68,2.49c0,2.91-.1,5.51,2.39,8.01,1.77,1.77,3.84,2.49,6.03,2.49,6.34,0,13.51-6.34,17.35-10.19.94-1.14.94-1.24.63-2.8-3.12,0-1.45.41-5.72,3.74-.72.52-1.04.93-1.87,1.56-2.08,1.56-6.44,4.57-10.08,4.57-1.24,0-2.49-.42-3.43-1.35-1.77-1.77-1.56-3.43-1.56-5.61,3.22-.21,6.96-3.22,8.62-5.09,3.22-4.06,3.22-8.21-1.35-8.21-4.99,0-11.02,7.69-11.02,12.89Z"/>
  <path class="cls-2" d="m315.38,99.46c-5.41,0,.72-5.82,4.36-8.1,1.45-.94,7.48-4.26,8.83-4.68-2.49,4.68-6.96,12.78-13.2,12.78Zm-3.33-19.33c0,2.91-.52,7.28,2.29,7.28,1.97,0,3.54-9.25,8.73-15.59,2.08-2.39,3.74-3.43,4.99-3.43,3.12,0,3.95,5.93,2.6,11.85-.52,2.39-.63,1.97-2.6,2.91-5.09,2.49-18.08,8.83-18.08,14.86,0,3.22,2.39,4.57,5.3,4.57,2.39,0,5.09-.83,7.37-2.29,7.69-4.68,10.19-14.24,11.02-15.69.52-.83,7.8-4.57,11.12-6.96,1.67-1.45,3.33-2.6,4.89-4.26.42-.21,5.41-4.57,1.15-4.57-.73,0-5.51,4.47-7.38,5.82-3.74,2.7-4.57,3.01-8.52,5.09,0-3.11,1.24-6.65-1.15-11.22-1.35-2.39-3.22-3.53-5.3-3.53-2.7,0-5.61,1.87-7.8,4.89-.93,1.04-1.77,2.18-2.39,3.53l-2.28,3.74c0-8.42,2.91-30.76,5.19-39.28.1-.93.62-2.39.62-2.7.1-.73-.52-1.98-1.45-1.98-.83,0-1.88.83-2.91,3.64-3.84,9.77-5.41,32.94-5.41,43.33Z"/>
</svg>