<svg xmlns="http://www.w3.org/2000/svg" xmlns:xlink="http://www.w3.org/1999/xlink" width="50" zoomAndPan="magnify" viewBox="0 0 37.5 30.000001" height="40" preserveAspectRatio="xMidYMid meet" version="1.0"><defs><g/><clipPath id="4cd116e08a"><path d="M 0.363281 0 L 36.652344 0 L 36.652344 29.03125 L 0.363281 29.03125 Z M 0.363281 0 " clip-rule="nonzero"/></clipPath></defs><g clip-path="url(#4cd116e08a)"><path stroke-linecap="butt" transform="matrix(0.725806, 0, 0, 0.725806, -20.540323, 8.20851)" fill="none" stroke-linejoin="miter" d="M 32.331077 10.245185 C 32.331077 12.629387 32.745487 16.913415 34.796008 18.231991 C 35.205036 18.527998 35.646355 18.646401 36.060765 18.646401 C 40.56007 18.646401 45.07014 4.131297 46.162675 0.471574 L 47.045313 -2.493877 C 47.115279 -2.741447 47.045313 -2.574606 47.115279 -2.666099 L 46.673959 1.181991 C 46.044272 6.859942 44.70955 17.984422 42.562154 22.860463 C 42.244619 23.538588 41.200522 25.492234 41.200522 26.073484 C 41.200522 26.321054 41.340452 26.417929 41.512675 26.417929 C 41.663369 26.417929 41.8033 26.342581 41.905557 26.245706 L 42.928126 24.56654 C 45.532987 20.008033 46.706251 11.682165 47.459723 6.246401 C 47.777258 3.932165 47.997918 1.305776 48.261633 -0.986933 C 48.455383 -2.493877 49.11198 -8.419398 48.821355 -9.684155 C 48.649133 -9.759502 48.509202 -9.80794 48.385418 -9.80794 C 47.895661 -9.80794 47.825695 -9.269745 47.675001 -8.661585 C 46.410244 -3.424954 45.091668 1.887026 43.094966 6.90838 C 41.884029 9.997616 40.19948 14.265498 37.836806 16.698137 C 37.180209 17.354734 36.620487 17.623831 36.13073 17.623831 C 34.403126 17.623831 33.768056 13.996401 33.768056 12.021227 C 33.768056 4.981644 35.350348 -1.132245 37.713022 -7.687454 C 37.912154 -8.150301 38.595661 -9.78103 38.595661 -10.19544 C 38.595661 -10.19544 38.595661 -10.14162 38.493404 -10.270787 L 38.251216 -10.464537 C 37.470834 -10.292315 37.303994 -9.511933 36.814237 -8.586238 C 34.354688 -3.694051 32.331077 5.051609 32.331077 10.245185 Z M 61.786459 10.024526 L 61.73264 9.906123 C 61.366668 8.781297 61.5658 7.882512 60.344098 4.863241 C 59.127779 1.790151 57.104168 -0.550995 54.472397 -2.520787 L 51.625348 -4.592835 C 51.280904 -4.840405 50.871876 -5.028773 50.748091 -5.448565 C 51.140973 -6.029815 52.965452 -6.562627 53.8158 -6.831724 C 54.989064 -7.176169 56.103126 -7.493704 57.297918 -7.805856 C 58.686459 -8.123391 63.390279 -9.248217 64.827258 -9.248217 C 63.368751 -2.962106 62.830557 1.327303 62.050175 7.48963 Z M 49.919272 -5.620787 C 49.919272 -5.007245 50.258334 -4.68971 50.629689 -4.420613 L 52.841668 -2.838322 C 54.106425 -1.891099 55.984723 -0.599433 57.007293 0.692234 C 58.568057 2.667408 59.612154 4.346574 60.371008 7.04831 C 60.903821 8.975047 61.366668 11.703692 61.366668 13.797269 L 60.952258 20.718449 C 61.12448 20.815324 61.172918 20.960637 61.366668 20.960637 C 61.904862 20.960637 61.877953 19.88963 61.92639 19.399873 L 62.7283 11.488415 C 62.830557 10.75647 62.852084 10.169838 62.948959 9.464804 C 63.320314 6.859942 63.562501 4.421922 63.998439 1.714803 L 65.317015 -5.71228 C 65.38698 -6.175127 65.946703 -9.17287 66.043578 -9.388148 C 66.947744 -9.388148 67.507466 -9.490405 68.363196 -9.490405 C 70.187675 -9.490405 73.91198 -8.952211 75.838717 -8.489363 C 76.350001 -8.344051 76.689064 -8.247176 76.909723 -8.247176 C 77.103473 -8.247176 77.173439 -8.344051 77.173439 -8.661585 C 77.173439 -9.684155 69.816321 -10.38919 68.842189 -10.491447 C 68.702258 -10.491447 68.578473 -10.491447 68.411633 -10.491447 C 67.846529 -10.491447 67.189932 -10.464537 66.678647 -10.464537 C 66.527953 -10.464537 66.40955 -10.464537 66.285765 -10.464537 C 65.60764 -10.512974 66.145834 -10.706724 65.483855 -10.706724 C 65.074828 -10.706724 65.41389 -10.38919 64.655036 -10.319224 C 60.710071 -9.899433 56.765105 -9.000648 53.01389 -7.714363 L 51.210939 -6.955509 C 50.818057 -6.713322 49.919272 -6.175127 49.919272 -5.620787 Z M 49.919272 -5.620787 " stroke="#fafaf8" stroke-width="1.21825" stroke-opacity="1" stroke-miterlimit="4"/></g><g fill="#303030" fill-opacity="1"><g transform="translate(2.572076, 14.740768)"><g><path d="M 0.355469 0.902344 C 0.355469 2.632812 0.652344 5.746094 2.140625 6.699219 C 2.441406 6.914062 2.757812 7 3.058594 7 C 6.328125 7 9.601562 -3.535156 10.394531 -6.1875 L 11.03125 -8.34375 C 11.085938 -8.523438 11.03125 -8.398438 11.085938 -8.46875 L 10.765625 -5.675781 C 10.308594 -1.554688 9.335938 6.523438 7.78125 10.058594 C 7.550781 10.554688 6.789062 11.96875 6.789062 12.394531 C 6.789062 12.570312 6.894531 12.640625 7.019531 12.640625 C 7.125 12.640625 7.230469 12.589844 7.300781 12.519531 L 8.042969 11.296875 C 9.9375 7.992188 10.785156 1.945312 11.332031 -1.996094 C 11.5625 -3.675781 11.722656 -5.585938 11.917969 -7.25 C 12.058594 -8.34375 12.535156 -12.640625 12.324219 -13.5625 C 12.199219 -13.613281 12.09375 -13.648438 12.003906 -13.648438 C 11.652344 -13.648438 11.597656 -13.261719 11.492188 -12.820312 C 10.574219 -9.015625 9.617188 -5.164062 8.167969 -1.519531 C 7.285156 0.726562 6.066406 3.820312 4.347656 5.585938 C 3.871094 6.066406 3.464844 6.257812 3.113281 6.257812 C 1.855469 6.257812 1.398438 3.625 1.398438 2.191406 C 1.398438 -2.917969 2.546875 -7.355469 4.261719 -12.109375 C 4.402344 -12.445312 4.898438 -13.632812 4.898438 -13.933594 C 4.898438 -13.933594 4.898438 -13.898438 4.828125 -13.984375 L 4.648438 -14.125 C 4.085938 -14.003906 3.960938 -13.4375 3.605469 -12.765625 C 1.820312 -9.210938 0.355469 -2.863281 0.355469 0.902344 Z M 0.355469 0.902344 "/></g></g></g><g fill="#303030" fill-opacity="1"><g transform="translate(14.983614, 14.740768)"><g><path d="M 9.316406 0.742188 L 9.28125 0.652344 C 9.015625 -0.160156 9.160156 -0.8125 8.273438 -3.003906 C 7.390625 -5.234375 5.921875 -6.929688 4.011719 -8.363281 L 1.945312 -9.867188 C 1.699219 -10.042969 1.398438 -10.183594 1.308594 -10.484375 C 1.589844 -10.910156 2.917969 -11.296875 3.535156 -11.492188 C 4.386719 -11.738281 5.199219 -11.96875 6.066406 -12.199219 C 7.070312 -12.429688 10.484375 -13.242188 11.527344 -13.242188 C 10.46875 -8.679688 10.078125 -5.570312 9.511719 -1.097656 Z M 0.707031 -10.609375 C 0.707031 -10.167969 0.953125 -9.9375 1.21875 -9.742188 L 2.828125 -8.59375 C 3.75 -7.902344 5.109375 -6.964844 5.851562 -6.027344 C 6.984375 -4.597656 7.742188 -3.378906 8.292969 -1.414062 C 8.679688 -0.0195312 9.015625 1.960938 9.015625 3.484375 L 8.714844 8.503906 C 8.839844 8.574219 8.875 8.679688 9.015625 8.679688 C 9.40625 8.679688 9.386719 7.902344 9.421875 7.550781 L 10.007812 1.804688 C 10.078125 1.273438 10.09375 0.847656 10.167969 0.335938 C 10.429688 -1.554688 10.609375 -3.324219 10.925781 -5.285156 L 11.882812 -10.679688 C 11.933594 -11.015625 12.339844 -13.191406 12.410156 -13.347656 C 13.066406 -13.347656 13.472656 -13.417969 14.089844 -13.417969 C 15.417969 -13.417969 18.121094 -13.03125 19.519531 -12.695312 C 19.890625 -12.589844 20.136719 -12.519531 20.296875 -12.519531 C 20.4375 -12.519531 20.492188 -12.589844 20.492188 -12.820312 C 20.492188 -13.5625 15.152344 -14.074219 14.445312 -14.144531 C 14.339844 -14.144531 14.25 -14.144531 14.125 -14.144531 C 13.71875 -14.144531 13.242188 -14.125 12.871094 -14.125 C 12.765625 -14.125 12.675781 -14.125 12.589844 -14.125 C 12.09375 -14.164062 12.484375 -14.304688 12.003906 -14.304688 C 11.703125 -14.304688 11.953125 -14.074219 11.402344 -14.019531 C 8.539062 -13.71875 5.675781 -13.066406 2.953125 -12.128906 L 1.644531 -11.582031 C 1.363281 -11.402344 0.707031 -11.015625 0.707031 -10.609375 Z M 0.707031 -10.609375 "/></g></g></g></svg>